# xmcd CD database file
#
# Track frame offsets:
#	150
#	15854
#	30126
#	43601
#	56504
#	69058
#	80125
#	93374
#	105912
#	119886
#	131286
#	144896
#	155851
#	167359
#	178978
#	194582
#
# Disc length: 2803 seconds
#
# Revision: 0
# Processed by: cddbd v1.5.2PL0 Copyright (c) Steve Scherf et al.
# Submitted via: CDex 1.50Beta7
#
DISCID=c70af110
DTITLE=Glen Campbell - Greatest Hits
DYEAR=2009
DGENRE=Country
TTITLE0=Rhinestone Cowboy
TTITLE1=Wichita Lineman
TTITLE2=Southern Nights
TTITLE3=By The Time I Get To Phoenix
TTITLE4=Galveston
TTITLE5=Try A Little Kindness
TTITLE6=Gentle On My Mind
TTITLE7=I Wanna Live
TTITLE8=Country Boy (You Got Your Feet In L. A.)
TTITLE9=True Grit
TTITLE10=Honey, Come Back
TTITLE11=It's Only Make Believe
TTITLE12=Dreams Of The Everyday Housewife
TTITLE13=Hey Little One
TTITLE14=Times Like These
TTITLE15=These Days
EXTD=YEAR: 2009
EXTT0=
EXTT1=
EXTT2=
EXTT3=
EXTT4=
EXTT5=
EXTT6=
EXTT7=
EXTT8=
EXTT9=
EXTT10=
EXTT11=
EXTT12=
EXTT13=
EXTT14=
EXTT15=
PLAYORDER=
